HIERARCHY
ROOT Hips
{
	OFFSET 0.00000 0.00000 0.00000
	CHANNELS 6 Xposition Yposition Zposition Zrotation Yrotation Xrotation 
	JOINT LHipJoint
	{
		OFFSET 0 0 0
		CHANNELS 3 Zrotation Yrotation Xrotation
		JOINT LeftHip
		{
			OFFSET 1.26600 -1.82114 0.91038
			CHANNELS 3 Zrotation Yrotation Xrotation
			JOINT LeftKnee
			{
				OFFSET 2.50076 -6.87080 0.00000
				CHANNELS 3 Zrotation Yrotation Xrotation
				JOINT LeftAnkle
				{
					OFFSET 2.57364 -7.07102 0.00000
					CHANNELS 3 Zrotation Yrotation Xrotation
					JOINT LeftToe
					{
						OFFSET 0.13572 -0.37290 1.97004
						CHANNELS 3 Zrotation Yrotation Xrotation
						End Site
						{
							OFFSET 0.00000 -0.00000 1.01383
						}
					}
				}
			}
		}
	}
	JOINT RHipJoint
	{
		OFFSET 0 0 0
		CHANNELS 3 Zrotation Yrotation Xrotation
		JOINT RightHip
		{
			OFFSET -1.20803 -1.82114 0.91038
			CHANNELS 3 Zrotation Yrotation Xrotation
			JOINT RightKnee
			{
				OFFSET -2.54916 -7.00377 0.00000
				CHANNELS 3 Zrotation Yrotation Xrotation
				JOINT RightAnkle
				{
					OFFSET -2.56374 -7.04382 0.00000
					CHANNELS 3 Zrotation Yrotation Xrotation
					JOINT RightToe
					{
						OFFSET -0.23520 -0.64621 2.09921
						CHANNELS 3 Zrotation Yrotation Xrotation
						End Site
						{
							OFFSET -0.00000 -0.00000 1.10065
						}
					}
				}
			}
		}
	}
	JOINT lowerback
	{
		OFFSET 0 0 0
		CHANNELS 3 Zrotation Yrotation Xrotation
		JOINT Chest
		{
			OFFSET 0.05492 2.10797 -0.12074
			CHANNELS 3 Zrotation Yrotation Xrotation
			JOINT Chest2
			{
				OFFSET 0.04577 2.11592 -0.04483
				CHANNELS 3 Zrotation Yrotation Xrotation
				JOINT lowerneck
				{
					OFFSET 0 0 0
					CHANNELS 3 Zrotation Yrotation Xrotation
					JOINT Neck
					{
						OFFSET -0.10759 1.80167 0.15770
						CHANNELS 3 Zrotation Yrotation Xrotation
						JOINT Head
						{
							OFFSET 0.09237 1.77509 -0.40848
							CHANNELS 3 Zrotation Yrotation Xrotation
							End Site
							{
								OFFSET 0.03805 1.84093 -0.15754
							}
						}
					}
				}
				JOINT LeftCollar
				{
					OFFSET 0 0 0
					CHANNELS 3 Zrotation Yrotation Xrotation
					JOINT LeftShoulder
					{
						OFFSET 3.42372 1.09575 -0.28209
CHANNELS 3 Zrotation Xrotation Yrotation
						JOINT LeftElbow
						{
OFFSET 0 -4.956810 0.000000
CHANNELS 3 Zrotation Xrotation Yrotation
							JOINT LeftWrist
							{
OFFSET 0 -3.409150 0.000000
CHANNELS 3 Zrotation Xrotation Yrotation
								JOINT lhand
								{
									OFFSET 0 0 0
CHANNELS 3 Zrotation Xrotation Yrotation
									JOINT LFingers
									{
OFFSET 0 -0.616400 0.000000
CHANNELS 3 Zrotation Xrotation Yrotation
										End Site
										{
OFFSET 0 -0.496960 0.000000
										}
									}
								}
								JOINT LThumb
								{
OFFSET 0 0.000000 0.000000
CHANNELS 3 Zrotation Xrotation Yrotation
									End Site
									{
OFFSET 0 -0.504550 0.504550
									}
								}
							}
						}
					}
				}
				JOINT RightCollar
				{
					OFFSET 0 0 0
					CHANNELS 3 Zrotation Yrotation Xrotation
					JOINT RightShoulder
					{
						OFFSET -3.24731 1.15872 -0.32221
CHANNELS 3 Zrotation Xrotation Yrotation
						JOINT RightElbow
						{
OFFSET 0 -5.352000 0.000000
CHANNELS 3 Zrotation Xrotation Yrotation
							JOINT RightWrist
							{
OFFSET 0 -3.437210 -0.000000
CHANNELS 3 Zrotation Xrotation Yrotation
								JOINT rhand
								{
									OFFSET 0 0 0
CHANNELS 3 Zrotation Xrotation Yrotation
									JOINT RFingers
									{
OFFSET 0 -0.720090 0.000000
CHANNELS 3 Zrotation Xrotation Yrotation
										End Site
										{
OFFSET 0 -0.580560 0.000000
										}
									}
								}
								JOINT RThumb
								{
OFFSET 0 0.000000 0.000000
CHANNELS 3 Zrotation Xrotation Yrotation
									End Site
									{
OFFSET 0 -0.589420 0.589420
									}
								}
							}
						}
					}
				}
			}
		}
	}
}
MOTION
Frames: 9
Frame Time: 0.008333333333333333
20.590581 23.968409 10.905418 213.160255 -85.543308 868.709888 0.000000 0.000000 0.000000 -16.926917 -4.807153 -3.754660 2.123866 9.119166 26.168952 0.157099 -15.840378 -12.709383 1.344034 7.320828 20.678579 0.000000 0.000000 0.000000 25.022313 3.071409 -16.293541 -3.352691 -11.245231 33.111483 -0.748821 6.723727 -15.459193 -0.392977 -4.023651 11.143393 1.199515 0.214474 6.583073 3.604061 0.327337 2.168389 3.018474 0.113534 -1.468525 -9.604857 -0.250230 -14.468921 3.949346 -0.656773 39.077098 3.188161 -1.731476 16.534506 0.000000 0.000000 0.000000 0.574439 1.020754 -22.442316 17.828290 -27.936751 4.468529 20.774275 3.826641 -21.165640 0.000000 0.000000 0.000000 -7.125000 0.000000 0.000000 -8.100836 52.296255 1.461147 0.000000 0.000000 0.000000 -5.061019 0.532851 20.243178 -17.247812 -27.183191 -4.199983 -20.824802 -18.613519 -11.983841 0.000000 0.000000 0.000000 7.125000 0.000000 0.000000 4.438844 17.209014 2.935725
20.124925 23.925370 10.727849 237.216990 -84.848770 843.709973 0.000000 0.000000 0.000000 -14.327287 -3.461081 -7.882095 4.164340 12.368925 37.060450 -0.033966 -14.688737 -9.911631 0.294935 3.483822 9.629515 0.000000 0.000000 0.000000 27.673754 0.600833 -13.194823 -3.018004 -10.723312 31.353203 -0.778857 8.128691 -15.893324 -0.397889 -4.047970 11.212006 3.353934 0.139355 7.133217 4.115418 0.373368 2.198328 2.335088 0.120692 -1.731378 -9.035299 -0.342075 -14.496941 3.567440 -0.889380 39.620881 2.885097 -1.829042 16.853748 0.000000 0.000000 0.000000 -0.099954 1.862396 -21.431459 17.114626 -27.008449 4.139282 21.917768 4.660587 -20.672860 0.000000 0.000000 0.000000 -7.125000 0.000000 0.000000 -6.794257 51.987306 1.173746 0.000000 0.000000 0.000000 -4.619945 0.748491 18.969811 -15.424666 -24.733919 -3.401989 -21.178102 -15.458364 -10.986993 0.000000 0.000000 0.000000 7.125000 0.000000 0.000000 4.162270 18.236562 2.657690
19.715584 23.923760 10.578614 265.818948 -81.214674 813.789681 0.000000 0.000000 0.000000 -7.637600 -3.962706 -17.546020 8.839217 16.699476 55.526834 -0.535484 -13.288790 1.138731 0.031502 -1.143223 -3.142984 0.000000 0.000000 0.000000 33.321158 -1.883611 -8.073614 -2.134734 -9.140738 26.236975 -0.740917 6.343324 -15.390446 -0.472234 -4.407257 12.225284 8.069103 -0.141287 8.216750 5.462409 0.341836 2.591717 1.126316 0.049715 -1.878346 -9.317005 -0.900614 -13.786969 3.857684 -1.780139 38.945024 2.895575 -2.154221 16.406333 0.000000 0.000000 0.000000 -0.596889 1.739630 -22.554581 16.071441 -25.617337 3.676835 19.010819 5.898971 -20.408069 0.000000 0.000000 0.000000 -7.125000 0.000000 0.000000 -9.588837 51.212473 1.478994 0.000000 0.000000 0.000000 -4.497199 0.505950 15.042026 -13.927003 -22.630212 -2.799968 -21.044106 -13.187202 -11.473248 0.000000 0.000000 0.000000 7.125000 0.000000 0.000000 4.270165 17.731325 2.774628
19.290564 23.994892 10.491981 270.941623 -81.651991 807.762828 0.000000 0.000000 0.000000 -6.852248 -4.689554 -26.905447 13.292219 18.883444 70.029073 -0.161692 -8.767441 -2.290248 0.014114 -0.765781 -2.104539 0.000000 0.000000 0.000000 33.220324 -3.811120 -3.675012 -1.488596 -7.707161 21.828570 -0.668890 5.703474 -14.575255 -1.101136 -6.667185 18.733288 8.301676 0.370042 9.088166 5.117323 1.099672 3.003794 0.555784 0.436406 -1.890087 -8.446253 -1.696364 -13.609558 3.615495 -3.170585 38.807010 2.389318 -2.611732 16.401338 0.000000 0.000000 0.000000 -0.305172 1.618991 -24.251022 15.922530 -25.414979 3.612982 17.769189 5.992588 -20.151077 0.000000 0.000000 0.000000 -7.125000 0.000000 0.000000 -10.712004 50.745657 1.531399 0.000000 0.000000 0.000000 -4.277842 0.741483 13.000578 -13.441819 -21.931118 -2.615999 -20.140935 -12.139358 -11.334835 0.000000 0.000000 0.000000 7.125000 0.000000 0.000000 4.900130 17.953806 3.162675
18.827776 24.015294 10.418988 268.027987 -81.124516 810.300703 0.000000 0.000000 0.000000 -4.788766 -5.184469 -35.236133 15.163656 19.429725 75.729087 -0.049146 -7.542947 -4.110107 0.017638 0.846561 2.326800 0.000000 0.000000 0.000000 34.218563 -4.500491 0.891593 -0.941196 -6.179139 17.305041 -0.608681 4.635038 -13.894229 -0.735563 -5.473311 15.264980 9.005001 0.684568 9.508459 5.285694 1.609825 3.079398 0.287574 0.678285 -1.997993 -9.621348 -1.776423 -13.126877 4.420305 -3.334374 38.963704 2.934412 -2.763092 16.429154 0.000000 0.000000 0.000000 -0.790315 2.979763 -22.648922 16.253562 -25.863188 3.755874 18.895012 5.715647 -20.712276 0.000000 0.000000 0.000000 -7.125000 0.000000 0.000000 -9.809094 51.503274 1.584059 0.000000 0.000000 0.000000 -4.896167 1.463514 14.223119 -13.375268 -21.834621 -2.591192 -20.563602 -11.786646 -11.055377 0.000000 0.000000 0.000000 7.125000 0.000000 0.000000 4.596729 18.214609 2.939097
18.363260 23.913225 10.401227 263.739791 -80.838099 814.256798 0.000000 0.000000 0.000000 -3.589959 -6.560430 -39.856443 13.367749 18.910859 70.263695 -0.306680 -10.051750 1.133768 0.008369 -0.588197 -1.616195 0.000000 0.000000 0.000000 34.597484 -4.525095 1.513217 -1.273873 -7.153155 20.169828 -0.862845 4.458929 -16.619439 -0.459641 -4.348508 12.059262 9.803988 1.056296 10.088048 5.197041 2.221544 3.247820 -0.316938 0.976615 -2.063429 -9.033328 -1.759591 -12.922256 4.052110 -3.369421 39.003217 2.660954 -2.740715 16.377708 0.000000 0.000000 0.000000 -0.797340 3.715857 -20.510371 15.818486 -25.273882 3.568094 18.062983 6.513967 -20.985238 0.000000 0.000000 0.000000 -7.125000 0.000000 0.000000 -10.726230 51.638921 1.770799 0.000000 0.000000 0.000000 -5.306273 1.880844 16.029469 -14.250512 -23.091716 -2.925653 -20.445790 -13.893855 -11.273105 0.000000 0.000000 0.000000 7.125000 0.000000 0.000000 4.684647 17.993883 3.018512
17.864121 23.698286 10.399032 257.404850 -82.264055 820.353649 0.000000 0.000000 0.000000 -4.725293 -8.517446 -39.615906 9.102683 16.870575 56.440413 0.124142 -8.669355 14.451225 0.000442 -0.101649 -0.279292 0.000000 0.000000 0.000000 32.945116 -3.740840 -0.340039 -2.494973 -9.826405 28.418357 -1.367844 4.695139 -21.067307 -0.171973 -2.661739 7.338837 8.391922 1.122719 10.151549 4.721694 2.171685 3.484468 -0.033166 0.973918 -1.899593 -9.649562 -1.538757 -12.859369 4.326263 -2.955825 38.962283 2.964329 -2.626279 16.319750 0.000000 0.000000 0.000000 -0.598039 4.581217 -18.964160 15.303215 -24.566789 3.351029 18.316211 5.651238 -20.847716 0.000000 0.000000 0.000000 -7.125000 0.000000 0.000000 -10.426882 51.542701 1.695618 0.000000 0.000000 0.000000 -6.209728 2.184395 19.286872 -16.041136 -25.576424 -3.663759 -20.085781 -14.771057 -10.965674 0.000000 0.000000 0.000000 7.125000 0.000000 0.000000 4.931253 18.347856 3.139956
17.290351 23.283006 10.406349 243.016501 -83.037983 833.155958 0.000000 0.000000 0.000000 -6.225645 -9.135764 -33.304546 4.877636 13.239558 40.280912 1.158500 -1.078195 20.768548 0.012081 -0.708429 -1.946892 0.000000 0.000000 0.000000 30.955872 -3.333582 -2.854711 -5.112716 -13.505715 41.299604 -1.856129 6.449819 -24.506218 -0.005747 -0.038001 0.104299 6.503393 1.028282 10.298926 4.692952 1.811708 4.140761 1.024123 0.803352 -1.377715 -10.099533 -0.810235 -12.632408 4.253325 -1.798954 39.483118 3.218081 -2.279069 16.418326 0.000000 0.000000 0.000000 -0.750769 5.648227 -17.263345 14.635937 -23.636303 3.078632 18.020583 6.504623 -20.680158 0.000000 0.000000 0.000000 -7.125000 0.000000 0.000000 -10.656056 51.322971 1.675774 0.000000 0.000000 0.000000 -7.517060 1.773685 21.663491 -17.586918 -27.623762 -4.356641 -20.853413 -16.569014 -11.059801 0.000000 0.000000 0.000000 7.125000 0.000000 0.000000 4.392828 18.186183 2.810647
16.597216 22.695321 10.446383 225.652534 -82.696788 848.244619 0.000000 0.000000 0.000000 -8.079094 -7.736476 -23.912072 2.051826 8.967109 25.696909 1.953210 8.641381 25.068685 0.047619 -1.405373 -3.865000 0.000000 0.000000 0.000000 28.228915 -3.766278 -3.885248 -8.391457 -16.397460 53.957228 -2.111818 11.330173 -26.174747 -0.029926 1.075730 -2.957661 5.769945 1.359907 10.012360 4.028500 2.104460 4.751310 0.723864 0.974797 -0.590105 -8.625801 -0.468306 -11.555504 3.872080 -1.847878 39.853110 2.768085 -2.189542 16.318426 0.000000 0.000000 0.000000 0.699818 7.178199 -17.725235 14.232011 -23.065470 2.918408 17.235411 6.699009 -20.670927 0.000000 0.000000 0.000000 -7.125000 0.000000 0.000000 -11.419620 51.182444 1.758618 0.000000 0.000000 0.000000 -7.253722 2.401680 21.513662 -19.552548 -30.098859 -5.305470 -20.245037 -17.773067 -10.694337 0.000000 0.000000 0.000000 7.125000 0.000000 0.000000 4.813724 18.622209 3.035930
